solid OpenSCAD_Model
  facet normal -0.994519 -0.104559 0
    outer loop
      vertex 16.2898 2 1
      vertex 16.1394 3.43054 4
      vertex 16.1394 3.43054 1
    endloop
  endfacet
  facet normal -0.994519 -0.104559 0
    outer loop
      vertex 16.1394 3.43054 4
      vertex 16.2898 2 1
      vertex 16.2898 2 4
    endloop
  endfacet
  facet normal 0.994521 -0.104539 0
    outer loop
      vertex -16.5 0 4
      vertex -16.1394 3.43054 1
      vertex -16.1394 3.43054 4
    endloop
  endfacet
  facet normal 0.994521 -0.104539 0
    outer loop
      vertex -16.1394 3.43054 1
      vertex -16.5 0 4
      vertex -16.5 0 1
    endloop
  endfacet
  facet normal 0 -1 0
    outer loop
      vertex -1.72472 16.4096 1
      vertex 1.72472 16.4096 4
      vertex -1.72472 16.4096 4
    endloop
  endfacet
  facet normal 0 -1 -0
    outer loop
      vertex 1.72472 16.4096 4
      vertex -1.72472 16.4096 1
      vertex 1.72472 16.4096 1
    endloop
  endfacet
  facet normal 0 1 -0
    outer loop
      vertex 1.72472 -16.4096 1
      vertex -1.72472 -16.4096 4
      vertex 1.72472 -16.4096 4
    endloop
  endfacet
  facet normal 0 1 0
    outer loop
      vertex -1.72472 -16.4096 4
      vertex 1.72472 -16.4096 1
      vertex -1.72472 -16.4096 1
    endloop
  endfacet
  facet normal -0.743149 -0.669126 0
    outer loop
      vertex 13.3488 9.69846 1
      vertex 11.0407 12.2619 4
      vertex 11.0407 12.2619 1
    endloop
  endfacet
  facet normal -0.743149 -0.669126 0
    outer loop
      vertex 11.0407 12.2619 4
      vertex 13.3488 9.69846 1
      vertex 13.3488 9.69846 4
    endloop
  endfacet
  facet normal -0.951059 -0.309008 0
    outer loop
      vertex 16.1394 3.43054 1
      vertex 15.0735 6.71115 4
      vertex 15.0735 6.71115 1
    endloop
  endfacet
  facet normal -0.951059 -0.309008 0
    outer loop
      vertex 15.0735 6.71115 4
      vertex 16.1394 3.43054 1
      vertex 16.1394 3.43054 4
    endloop
  endfacet
  facet normal 0.587773 -0.809026 0
    outer loop
      vertex -11.0407 12.2619 1
      vertex -8.25 14.2894 4
      vertex -11.0407 12.2619 4
    endloop
  endfacet
  facet normal 0.587773 -0.809026 0
    outer loop
      vertex -8.25 14.2894 4
      vertex -11.0407 12.2619 1
      vertex -8.25 14.2894 1
    endloop
  endfacet
  facet normal 0.207918 -0.978146 0
    outer loop
      vertex -5.09878 15.6924 1
      vertex -1.72472 16.4096 4
      vertex -5.09878 15.6924 4
    endloop
  endfacet
  facet normal 0.207918 -0.978146 0
    outer loop
      vertex -1.72472 16.4096 4
      vertex -5.09878 15.6924 1
      vertex -1.72472 16.4096 1
    endloop
  endfacet
  facet normal -0.951059 0.309008 0
    outer loop
      vertex 15.0735 -6.71115 1
      vertex 16.1394 -3.43054 4
      vertex 16.1394 -3.43054 1
    endloop
  endfacet
  facet normal -0.951059 0.309008 0
    outer loop
      vertex 16.1394 -3.43054 4
      vertex 15.0735 -6.71115 1
      vertex 15.0735 -6.71115 4
    endloop
  endfacet
  facet normal -0.866028 -0.499995 0
    outer loop
      vertex 15.0735 6.71115 1
      vertex 13.3488 9.69846 4
      vertex 13.3488 9.69846 1
    endloop
  endfacet
  facet normal -0.866028 -0.499995 0
    outer loop
      vertex 13.3488 9.69846 4
      vertex 15.0735 6.71115 1
      vertex 15.0735 6.71115 4
    endloop
  endfacet
  facet normal -0.406733 -0.913547 0
    outer loop
      vertex 5.09878 15.6924 1
      vertex 8.25 14.2894 4
      vertex 5.09878 15.6924 4
    endloop
  endfacet
  facet normal -0.406733 -0.913547 -0
    outer loop
      vertex 8.25 14.2894 4
      vertex 5.09878 15.6924 1
      vertex 8.25 14.2894 1
    endloop
  endfacet
  facet normal -0.207918 -0.978146 0
    outer loop
      vertex 1.72472 16.4096 1
      vertex 5.09878 15.6924 4
      vertex 1.72472 16.4096 4
    endloop
  endfacet
  facet normal -0.207918 -0.978146 -0
    outer loop
      vertex 5.09878 15.6924 4
      vertex 1.72472 16.4096 1
      vertex 5.09878 15.6924 1
    endloop
  endfacet
  facet normal -0.587773 -0.809026 0
    outer loop
      vertex 8.25 14.2894 1
      vertex 11.0407 12.2619 4
      vertex 8.25 14.2894 4
    endloop
  endfacet
  facet normal -0.587773 -0.809026 -0
    outer loop
      vertex 11.0407 12.2619 4
      vertex 8.25 14.2894 1
      vertex 11.0407 12.2619 1
    endloop
  endfacet
  facet normal 0.866028 -0.499995 0
    outer loop
      vertex -15.0735 6.71115 4
      vertex -13.3488 9.69846 1
      vertex -13.3488 9.69846 4
    endloop
  endfacet
  facet normal 0.866028 -0.499995 0
    outer loop
      vertex -13.3488 9.69846 1
      vertex -15.0735 6.71115 4
      vertex -15.0735 6.71115 1
    endloop
  endfacet
  facet normal 0.743149 -0.669126 0
    outer loop
      vertex -13.3488 9.69846 4
      vertex -11.0407 12.2619 1
      vertex -11.0407 12.2619 4
    endloop
  endfacet
  facet normal 0.743149 -0.669126 0
    outer loop
      vertex -11.0407 12.2619 1
      vertex -13.3488 9.69846 4
      vertex -13.3488 9.69846 1
    endloop
  endfacet
  facet normal 0.951059 -0.309008 0
    outer loop
      vertex -16.1394 3.43054 4
      vertex -15.0735 6.71115 1
      vertex -15.0735 6.71115 4
    endloop
  endfacet
  facet normal 0.951059 -0.309008 0
    outer loop
      vertex -15.0735 6.71115 1
      vertex -16.1394 3.43054 4
      vertex -16.1394 3.43054 1
    endloop
  endfacet
  facet normal 0.406733 -0.913547 0
    outer loop
      vertex -8.25 14.2894 1
      vertex -5.09878 15.6924 4
      vertex -8.25 14.2894 4
    endloop
  endfacet
  facet normal 0.406733 -0.913547 0
    outer loop
      vertex -5.09878 15.6924 4
      vertex -8.25 14.2894 1
      vertex -5.09878 15.6924 1
    endloop
  endfacet
  facet normal -0.994519 0.104559 0
    outer loop
      vertex 16.1394 -3.43054 1
      vertex 16.2898 -2 4
      vertex 16.2898 -2 1
    endloop
  endfacet
  facet normal -0.994519 0.104559 0
    outer loop
      vertex 16.2898 -2 4
      vertex 16.1394 -3.43054 1
      vertex 16.1394 -3.43054 4
    endloop
  endfacet
  facet normal 0 0 1
    outer loop
      vertex 8.5 2 1
      vertex 16.1394 3.43054 1
      vertex 15.0735 6.71115 1
    endloop
  endfacet
  facet normal 0 0 1
    outer loop
      vertex 8.5 2 1
      vertex 15.0735 6.71115 1
      vertex 13.3488 9.69846 1
    endloop
  endfacet
  facet normal 0 0 1
    outer loop
      vertex 8.5 2 1
      vertex 13.3488 9.69846 1
      vertex 11.0407 12.2619 1
    endloop
  endfacet
  facet normal 0 0 1
    outer loop
      vertex 16.1394 3.43054 1
      vertex 8.5 2 1
      vertex 16.2898 2 1
    endloop
  endfacet
  facet normal 0 0 1
    outer loop
      vertex 5.09878 15.6924 1
      vertex 8.5 2 1
      vertex 8.25 14.2894 1
    endloop
  endfacet
  facet normal 0 0 1
    outer loop
      vertex 8.25 14.2894 1
      vertex 8.5 2 1
      vertex 11.0407 12.2619 1
    endloop
  endfacet
  facet normal -0 0 1
    outer loop
      vertex 8.5 -2 1
      vertex 16.1394 -3.43054 1
      vertex 16.2898 -2 1
    endloop
  endfacet
  facet normal 0 0 1
    outer loop
      vertex 16.1394 -3.43054 1
      vertex 8.5 -2 1
      vertex 15.0735 -6.71115 1
    endloop
  endfacet
  facet normal 0 0 1
    outer loop
      vertex 15.0735 -6.71115 1
      vertex 8.5 -2 1
      vertex 13.3488 -9.69846 1
    endloop
  endfacet
  facet normal 0 0 1
    outer loop
      vertex 13.3488 -9.69846 1
      vertex 8.5 -2 1
      vertex 11.0407 -12.2619 1
    endloop
  endfacet
  facet normal 0 0 1
    outer loop
      vertex 8.5 -2 1
      vertex 8.25 -14.2894 1
      vertex 11.0407 -12.2619 1
    endloop
  endfacet
  facet normal 0 0 1
    outer loop
      vertex 1.72472 16.4096 1
      vertex 8.5 2 1
      vertex 5.09878 15.6924 1
    endloop
  endfacet
  facet normal -0 0 1
    outer loop
      vertex -1.72472 16.4096 1
      vertex 8.5 2 1
      vertex 1.72472 16.4096 1
    endloop
  endfacet
  facet normal 0 0 1
    outer loop
      vertex 8.5 -2 1
      vertex 5.09878 -15.6924 1
      vertex 8.25 -14.2894 1
    endloop
  endfacet
  facet normal -0 0 1
    outer loop
      vertex -5.09878 15.6924 1
      vertex 8.5 2 1
      vertex -1.72472 16.4096 1
    endloop
  endfacet
  facet normal 0 0 1
    outer loop
      vertex 8.5 -2 1
      vertex 1.72472 -16.4096 1
      vertex 5.09878 -15.6924 1
    endloop
  endfacet
  facet normal -0 0 1
    outer loop
      vertex -8.25 14.2894 1
      vertex 8.5 2 1
      vertex -5.09878 15.6924 1
    endloop
  endfacet
  facet normal 0 0 1
    outer loop
      vertex 8.5 -2 1
      vertex -1.72472 -16.4096 1
      vertex 1.72472 -16.4096 1
    endloop
  endfacet
  facet normal -0 0 1
    outer loop
      vertex -11.0407 12.2619 1
      vertex 8.5 2 1
      vertex -8.25 14.2894 1
    endloop
  endfacet
  facet normal 0 0 1
    outer loop
      vertex 8.5 -2 1
      vertex -5.09878 -15.6924 1
      vertex -1.72472 -16.4096 1
    endloop
  endfacet
  facet normal -0 0 1
    outer loop
      vertex -13.3488 9.69846 1
      vertex 8.5 2 1
      vertex -11.0407 12.2619 1
    endloop
  endfacet
  facet normal 0 0 1
    outer loop
      vertex 8.5 -2 1
      vertex -8.25 -14.2894 1
      vertex -5.09878 -15.6924 1
    endloop
  endfacet
  facet normal -0 0 1
    outer loop
      vertex -15.0735 6.71115 1
      vertex 8.5 2 1
      vertex -13.3488 9.69846 1
    endloop
  endfacet
  facet normal 0 0 1
    outer loop
      vertex 8.5 -2 1
      vertex -11.0407 -12.2619 1
      vertex -8.25 -14.2894 1
    endloop
  endfacet
  facet normal -0 0 1
    outer loop
      vertex -16.1394 3.43054 1
      vertex 8.5 2 1
      vertex -15.0735 6.71115 1
    endloop
  endfacet
  facet normal 0 0 1
    outer loop
      vertex 8.5 -2 1
      vertex -13.3488 -9.69846 1
      vertex -11.0407 -12.2619 1
    endloop
  endfacet
  facet normal 0 0 1
    outer loop
      vertex -16.5 0 1
      vertex 8.5 2 1
      vertex -16.1394 3.43054 1
    endloop
  endfacet
  facet normal 0 0 1
    outer loop
      vertex 8.5 -2 1
      vertex -15.0735 -6.71115 1
      vertex -13.3488 -9.69846 1
    endloop
  endfacet
  facet normal 0 0 1
    outer loop
      vertex 8.5 2 1
      vertex -16.5 0 1
      vertex 8.5 -2 1
    endloop
  endfacet
  facet normal 0 0 1
    outer loop
      vertex 8.5 -2 1
      vertex -16.1394 -3.43054 1
      vertex -15.0735 -6.71115 1
    endloop
  endfacet
  facet normal 0 0 1
    outer loop
      vertex 8.5 -2 1
      vertex -16.5 0 1
      vertex -16.1394 -3.43054 1
    endloop
  endfacet
  facet normal -0.207918 0.978146 0
    outer loop
      vertex 5.09878 -15.6924 1
      vertex 1.72472 -16.4096 4
      vertex 5.09878 -15.6924 4
    endloop
  endfacet
  facet normal -0.207918 0.978146 0
    outer loop
      vertex 1.72472 -16.4096 4
      vertex 5.09878 -15.6924 1
      vertex 1.72472 -16.4096 1
    endloop
  endfacet
  facet normal -0.866028 0.499995 0
    outer loop
      vertex 13.3488 -9.69846 1
      vertex 15.0735 -6.71115 4
      vertex 15.0735 -6.71115 1
    endloop
  endfacet
  facet normal -0.866028 0.499995 0
    outer loop
      vertex 15.0735 -6.71115 4
      vertex 13.3488 -9.69846 1
      vertex 13.3488 -9.69846 4
    endloop
  endfacet
  facet normal 0.587773 0.809026 -0
    outer loop
      vertex -8.25 -14.2894 1
      vertex -11.0407 -12.2619 4
      vertex -8.25 -14.2894 4
    endloop
  endfacet
  facet normal 0.587773 0.809026 0
    outer loop
      vertex -11.0407 -12.2619 4
      vertex -8.25 -14.2894 1
      vertex -11.0407 -12.2619 1
    endloop
  endfacet
  facet normal 0.866028 0.499995 0
    outer loop
      vertex -13.3488 -9.69846 4
      vertex -15.0735 -6.71115 1
      vertex -15.0735 -6.71115 4
    endloop
  endfacet
  facet normal 0.866028 0.499995 0
    outer loop
      vertex -15.0735 -6.71115 1
      vertex -13.3488 -9.69846 4
      vertex -13.3488 -9.69846 1
    endloop
  endfacet
  facet normal 0.743149 0.669126 0
    outer loop
      vertex -11.0407 -12.2619 4
      vertex -13.3488 -9.69846 1
      vertex -13.3488 -9.69846 4
    endloop
  endfacet
  facet normal 0.743149 0.669126 0
    outer loop
      vertex -13.3488 -9.69846 1
      vertex -11.0407 -12.2619 4
      vertex -11.0407 -12.2619 1
    endloop
  endfacet
  facet normal -0.587773 0.809026 0
    outer loop
      vertex 11.0407 -12.2619 1
      vertex 8.25 -14.2894 4
      vertex 11.0407 -12.2619 4
    endloop
  endfacet
  facet normal -0.587773 0.809026 0
    outer loop
      vertex 8.25 -14.2894 4
      vertex 11.0407 -12.2619 1
      vertex 8.25 -14.2894 1
    endloop
  endfacet
  facet normal -0.406733 0.913547 0
    outer loop
      vertex 8.25 -14.2894 1
      vertex 5.09878 -15.6924 4
      vertex 8.25 -14.2894 4
    endloop
  endfacet
  facet normal -0.406733 0.913547 0
    outer loop
      vertex 5.09878 -15.6924 4
      vertex 8.25 -14.2894 1
      vertex 5.09878 -15.6924 1
    endloop
  endfacet
  facet normal 0.207918 0.978146 -0
    outer loop
      vertex -1.72472 -16.4096 1
      vertex -5.09878 -15.6924 4
      vertex -1.72472 -16.4096 4
    endloop
  endfacet
  facet normal 0.207918 0.978146 0
    outer loop
      vertex -5.09878 -15.6924 4
      vertex -1.72472 -16.4096 1
      vertex -5.09878 -15.6924 1
    endloop
  endfacet
  facet normal 0.951059 0.309008 0
    outer loop
      vertex -15.0735 -6.71115 4
      vertex -16.1394 -3.43054 1
      vertex -16.1394 -3.43054 4
    endloop
  endfacet
  facet normal 0.951059 0.309008 0
    outer loop
      vertex -16.1394 -3.43054 1
      vertex -15.0735 -6.71115 4
      vertex -15.0735 -6.71115 1
    endloop
  endfacet
  facet normal 0.994521 0.104539 0
    outer loop
      vertex -16.1394 -3.43054 4
      vertex -16.5 0 1
      vertex -16.5 0 4
    endloop
  endfacet
  facet normal 0.994521 0.104539 0
    outer loop
      vertex -16.5 0 1
      vertex -16.1394 -3.43054 4
      vertex -16.1394 -3.43054 1
    endloop
  endfacet
  facet normal -0.743149 0.669126 0
    outer loop
      vertex 11.0407 -12.2619 1
      vertex 13.3488 -9.69846 4
      vertex 13.3488 -9.69846 1
    endloop
  endfacet
  facet normal -0.743149 0.669126 0
    outer loop
      vertex 13.3488 -9.69846 4
      vertex 11.0407 -12.2619 1
      vertex 11.0407 -12.2619 4
    endloop
  endfacet
  facet normal 0.406733 0.913547 -0
    outer loop
      vertex -5.09878 -15.6924 1
      vertex -8.25 -14.2894 4
      vertex -5.09878 -15.6924 4
    endloop
  endfacet
  facet normal 0.406733 0.913547 0
    outer loop
      vertex -8.25 -14.2894 4
      vertex -5.09878 -15.6924 1
      vertex -8.25 -14.2894 1
    endloop
  endfacet
  facet normal 1 -0 0
    outer loop
      vertex 8.5 -2 1
      vertex 8.5 2 0
      vertex 8.5 2 1
    endloop
  endfacet
  facet normal 1 0 0
    outer loop
      vertex 8.5 2 0
      vertex 8.5 -2 1
      vertex 8.5 -2 0
    endloop
  endfacet
  facet normal 0 -1 0
    outer loop
      vertex 8.5 2 1
      vertex 8.5 2 0
      vertex 16.2898 2 1
    endloop
  endfacet
  facet normal 0 -1 0
    outer loop
      vertex 16.2898 2 1
      vertex 17.2898 2 4
      vertex 16.2898 2 4
    endloop
  endfacet
  facet normal 0 -1 0
    outer loop
      vertex 16.2898 2 1
      vertex 17.2898 2 0
      vertex 17.2898 2 4
    endloop
  endfacet
  facet normal 0 -1 0
    outer loop
      vertex 17.2898 2 0
      vertex 16.2898 2 1
      vertex 8.5 2 0
    endloop
  endfacet
  facet normal 0 1 0
    outer loop
      vertex 17.2898 -2 4
      vertex 16.2898 -2 1
      vertex 16.2898 -2 4
    endloop
  endfacet
  facet normal 0 1 -0
    outer loop
      vertex 17.2898 -2 0
      vertex 16.2898 -2 1
      vertex 17.2898 -2 4
    endloop
  endfacet
  facet normal 0 1 0
    outer loop
      vertex 8.5 -2 0
      vertex 16.2898 -2 1
      vertex 17.2898 -2 0
    endloop
  endfacet
  facet normal 0 1 0
    outer loop
      vertex 16.2898 -2 1
      vertex 8.5 -2 0
      vertex 8.5 -2 1
    endloop
  endfacet
  facet normal 0.994522 0.104524 0
    outer loop
      vertex 17.2898 2 4
      vertex 17.1176 3.63845 0
      vertex 17.1176 3.63845 4
    endloop
  endfacet
  facet normal 0.994522 0.104524 0
    outer loop
      vertex 17.1176 3.63845 0
      vertex 17.2898 2 4
      vertex 17.2898 2 0
    endloop
  endfacet
  facet normal -0.994522 0.104524 0
    outer loop
      vertex -17.5 0 0
      vertex -17.1176 3.63845 4
      vertex -17.1176 3.63845 0
    endloop
  endfacet
  facet normal -0.994522 0.104524 0
    outer loop
      vertex -17.1176 3.63845 4
      vertex -17.5 0 0
      vertex -17.5 0 4
    endloop
  endfacet
  facet normal 0 1 -0
    outer loop
      vertex 1.82925 17.4041 0
      vertex -1.82925 17.4041 4
      vertex 1.82925 17.4041 4
    endloop
  endfacet
  facet normal 0 1 0
    outer loop
      vertex -1.82925 17.4041 4
      vertex 1.82925 17.4041 0
      vertex -1.82925 17.4041 0
    endloop
  endfacet
  facet normal 0 -1 0
    outer loop
      vertex -1.82925 -17.4041 0
      vertex 1.82925 -17.4041 4
      vertex -1.82925 -17.4041 4
    endloop
  endfacet
  facet normal 0 -1 -0
    outer loop
      vertex 1.82925 -17.4041 4
      vertex -1.82925 -17.4041 0
      vertex 1.82925 -17.4041 0
    endloop
  endfacet
  facet normal 0.587782 0.80902 -0
    outer loop
      vertex 11.7098 13.005 0
      vertex 8.75 15.1554 4
      vertex 11.7098 13.005 4
    endloop
  endfacet
  facet normal 0.587782 0.80902 0
    outer loop
      vertex 8.75 15.1554 4
      vertex 11.7098 13.005 0
      vertex 8.75 15.1554 0
    endloop
  endfacet
  facet normal 0.40675 0.91354 -0
    outer loop
      vertex 8.75 15.1554 0
      vertex 5.4078 16.6435 4
      vertex 8.75 15.1554 4
    endloop
  endfacet
  facet normal 0.40675 0.91354 0
    outer loop
      vertex 5.4078 16.6435 4
      vertex 8.75 15.1554 0
      vertex 5.4078 16.6435 0
    endloop
  endfacet
  facet normal -0.587782 0.80902 0
    outer loop
      vertex -8.75 15.1554 0
      vertex -11.7098 13.005 4
      vertex -8.75 15.1554 4
    endloop
  endfacet
  facet normal -0.587782 0.80902 0
    outer loop
      vertex -11.7098 13.005 4
      vertex -8.75 15.1554 0
      vertex -11.7098 13.005 0
    endloop
  endfacet
  facet normal -0.40675 0.91354 0
    outer loop
      vertex -5.4078 16.6435 0
      vertex -8.75 15.1554 4
      vertex -5.4078 16.6435 4
    endloop
  endfacet
  facet normal -0.40675 0.91354 0
    outer loop
      vertex -8.75 15.1554 4
      vertex -5.4078 16.6435 0
      vertex -8.75 15.1554 0
    endloop
  endfacet
  facet normal 0.951052 -0.309032 0
    outer loop
      vertex 15.987 -7.11789 4
      vertex 17.1176 -3.63845 0
      vertex 17.1176 -3.63845 4
    endloop
  endfacet
  facet normal 0.951052 -0.309032 0
    outer loop
      vertex 17.1176 -3.63845 0
      vertex 15.987 -7.11789 4
      vertex 15.987 -7.11789 0
    endloop
  endfacet
  facet normal 0.866028 0.499995 0
    outer loop
      vertex 15.987 7.11789 4
      vertex 14.1578 10.2862 0
      vertex 14.1578 10.2862 4
    endloop
  endfacet
  facet normal 0.866028 0.499995 0
    outer loop
      vertex 14.1578 10.2862 0
      vertex 15.987 7.11789 4
      vertex 15.987 7.11789 0
    endloop
  endfacet
  facet normal 0.951052 0.309032 0
    outer loop
      vertex 17.1176 3.63845 4
      vertex 15.987 7.11789 0
      vertex 15.987 7.11789 4
    endloop
  endfacet
  facet normal 0.951052 0.309032 0
    outer loop
      vertex 15.987 7.11789 0
      vertex 17.1176 3.63845 4
      vertex 17.1176 3.63845 0
    endloop
  endfacet
  facet normal 0.743147 0.669128 0
    outer loop
      vertex 14.1578 10.2862 4
      vertex 11.7098 13.005 0
      vertex 11.7098 13.005 4
    endloop
  endfacet
  facet normal 0.743147 0.669128 0
    outer loop
      vertex 11.7098 13.005 0
      vertex 14.1578 10.2862 4
      vertex 14.1578 10.2862 0
    endloop
  endfacet
  facet normal 0.2079 0.97815 -0
    outer loop
      vertex 5.4078 16.6435 0
      vertex 1.82925 17.4041 4
      vertex 5.4078 16.6435 4
    endloop
  endfacet
  facet normal 0.2079 0.97815 0
    outer loop
      vertex 1.82925 17.4041 4
      vertex 5.4078 16.6435 0
      vertex 1.82925 17.4041 0
    endloop
  endfacet
  facet normal -0.866028 0.499995 0
    outer loop
      vertex -15.987 7.11789 0
      vertex -14.1578 10.2862 4
      vertex -14.1578 10.2862 0
    endloop
  endfacet
  facet normal -0.866028 0.499995 0
    outer loop
      vertex -14.1578 10.2862 4
      vertex -15.987 7.11789 0
      vertex -15.987 7.11789 4
    endloop
  endfacet
  facet normal -0.743147 0.669128 0
    outer loop
      vertex -14.1578 10.2862 0
      vertex -11.7098 13.005 4
      vertex -11.7098 13.005 0
    endloop
  endfacet
  facet normal -0.743147 0.669128 0
    outer loop
      vertex -11.7098 13.005 4
      vertex -14.1578 10.2862 0
      vertex -14.1578 10.2862 4
    endloop
  endfacet
  facet normal -0.951052 0.309032 0
    outer loop
      vertex -17.1176 3.63845 0
      vertex -15.987 7.11789 4
      vertex -15.987 7.11789 0
    endloop
  endfacet
  facet normal -0.951052 0.309032 0
    outer loop
      vertex -15.987 7.11789 4
      vertex -17.1176 3.63845 0
      vertex -17.1176 3.63845 4
    endloop
  endfacet
  facet normal 0 0 1
    outer loop
      vertex 17.1176 3.63845 4
      vertex 16.2898 2 4
      vertex 17.2898 2 4
    endloop
  endfacet
  facet normal 0 0 1
    outer loop
      vertex 17.1176 3.63845 4
      vertex 16.1394 3.43054 4
      vertex 16.2898 2 4
    endloop
  endfacet
  facet normal 0 0 1
    outer loop
      vertex 15.987 7.11789 4
      vertex 16.1394 3.43054 4
      vertex 17.1176 3.63845 4
    endloop
  endfacet
  facet normal 0 0 1
    outer loop
      vertex 15.987 7.11789 4
      vertex 15.0735 6.71115 4
      vertex 16.1394 3.43054 4
    endloop
  endfacet
  facet normal 0 0 1
    outer loop
      vertex 14.1578 10.2862 4
      vertex 15.0735 6.71115 4
      vertex 15.987 7.11789 4
    endloop
  endfacet
  facet normal 0 0 1
    outer loop
      vertex 14.1578 10.2862 4
      vertex 13.3488 9.69846 4
      vertex 15.0735 6.71115 4
    endloop
  endfacet
  facet normal 0 0 1
    outer loop
      vertex 11.7098 13.005 4
      vertex 13.3488 9.69846 4
      vertex 14.1578 10.2862 4
    endloop
  endfacet
  facet normal 0 0 1
    outer loop
      vertex 11.7098 13.005 4
      vertex 11.0407 12.2619 4
      vertex 13.3488 9.69846 4
    endloop
  endfacet
  facet normal 0 0 1
    outer loop
      vertex 8.75 15.1554 4
      vertex 11.0407 12.2619 4
      vertex 11.7098 13.005 4
    endloop
  endfacet
  facet normal 0 0 1
    outer loop
      vertex 8.75 15.1554 4
      vertex 8.25 14.2894 4
      vertex 11.0407 12.2619 4
    endloop
  endfacet
  facet normal 0 0 1
    outer loop
      vertex 5.4078 16.6435 4
      vertex 8.25 14.2894 4
      vertex 8.75 15.1554 4
    endloop
  endfacet
  facet normal 0 0 1
    outer loop
      vertex 5.4078 16.6435 4
      vertex 5.09878 15.6924 4
      vertex 8.25 14.2894 4
    endloop
  endfacet
  facet normal 0 0 1
    outer loop
      vertex 1.82925 17.4041 4
      vertex 5.09878 15.6924 4
      vertex 5.4078 16.6435 4
    endloop
  endfacet
  facet normal 0 0 1
    outer loop
      vertex 1.82925 17.4041 4
      vertex 1.72472 16.4096 4
      vertex 5.09878 15.6924 4
    endloop
  endfacet
  facet normal 0 0 1
    outer loop
      vertex 1.82925 17.4041 4
      vertex -1.72472 16.4096 4
      vertex 1.72472 16.4096 4
    endloop
  endfacet
  facet normal -0 0 1
    outer loop
      vertex -1.82925 17.4041 4
      vertex -1.72472 16.4096 4
      vertex 1.82925 17.4041 4
    endloop
  endfacet
  facet normal 0 0 1
    outer loop
      vertex -1.82925 17.4041 4
      vertex -5.09878 15.6924 4
      vertex -1.72472 16.4096 4
    endloop
  endfacet
  facet normal -0 0 1
    outer loop
      vertex -5.4078 16.6435 4
      vertex -5.09878 15.6924 4
      vertex -1.82925 17.4041 4
    endloop
  endfacet
  facet normal 0 0 1
    outer loop
      vertex -5.4078 16.6435 4
      vertex -8.25 14.2894 4
      vertex -5.09878 15.6924 4
    endloop
  endfacet
  facet normal -0 0 1
    outer loop
      vertex -8.75 15.1554 4
      vertex -8.25 14.2894 4
      vertex -5.4078 16.6435 4
    endloop
  endfacet
  facet normal 0 0 1
    outer loop
      vertex -8.75 15.1554 4
      vertex -11.0407 12.2619 4
      vertex -8.25 14.2894 4
    endloop
  endfacet
  facet normal -0 0 1
    outer loop
      vertex -11.7098 13.005 4
      vertex -11.0407 12.2619 4
      vertex -8.75 15.1554 4
    endloop
  endfacet
  facet normal 0 0 1
    outer loop
      vertex -11.7098 13.005 4
      vertex -13.3488 9.69846 4
      vertex -11.0407 12.2619 4
    endloop
  endfacet
  facet normal -0 0 1
    outer loop
      vertex -14.1578 10.2862 4
      vertex -13.3488 9.69846 4
      vertex -11.7098 13.005 4
    endloop
  endfacet
  facet normal 0 0 1
    outer loop
      vertex -14.1578 10.2862 4
      vertex -15.0735 6.71115 4
      vertex -13.3488 9.69846 4
    endloop
  endfacet
  facet normal -0 0 1
    outer loop
      vertex -15.987 7.11789 4
      vertex -15.0735 6.71115 4
      vertex -14.1578 10.2862 4
    endloop
  endfacet
  facet normal 0 0 1
    outer loop
      vertex -15.987 7.11789 4
      vertex -16.1394 3.43054 4
      vertex -15.0735 6.71115 4
    endloop
  endfacet
  facet normal -0 0 1
    outer loop
      vertex -17.1176 3.63845 4
      vertex -16.1394 3.43054 4
      vertex -15.987 7.11789 4
    endloop
  endfacet
  facet normal 0 0 1
    outer loop
      vertex -16.1394 3.43054 4
      vertex -17.1176 3.63845 4
      vertex -16.5 0 4
    endloop
  endfacet
  facet normal -0 0 1
    outer loop
      vertex 16.2898 -2 4
      vertex 17.1176 -3.63845 4
      vertex 17.2898 -2 4
    endloop
  endfacet
  facet normal -0 0 1
    outer loop
      vertex 16.1394 -3.43054 4
      vertex 17.1176 -3.63845 4
      vertex 16.2898 -2 4
    endloop
  endfacet
  facet normal 0 0 1
    outer loop
      vertex 16.1394 -3.43054 4
      vertex 15.987 -7.11789 4
      vertex 17.1176 -3.63845 4
    endloop
  endfacet
  facet normal -0 0 1
    outer loop
      vertex 15.0735 -6.71115 4
      vertex 15.987 -7.11789 4
      vertex 16.1394 -3.43054 4
    endloop
  endfacet
  facet normal 0 0 1
    outer loop
      vertex 15.0735 -6.71115 4
      vertex 14.1578 -10.2862 4
      vertex 15.987 -7.11789 4
    endloop
  endfacet
  facet normal -0 0 1
    outer loop
      vertex 13.3488 -9.69846 4
      vertex 14.1578 -10.2862 4
      vertex 15.0735 -6.71115 4
    endloop
  endfacet
  facet normal 0 0 1
    outer loop
      vertex 13.3488 -9.69846 4
      vertex 11.7098 -13.005 4
      vertex 14.1578 -10.2862 4
    endloop
  endfacet
  facet normal -0 0 1
    outer loop
      vertex 11.0407 -12.2619 4
      vertex 11.7098 -13.005 4
      vertex 13.3488 -9.69846 4
    endloop
  endfacet
  facet normal 0 0 1
    outer loop
      vertex 11.0407 -12.2619 4
      vertex 8.75 -15.1554 4
      vertex 11.7098 -13.005 4
    endloop
  endfacet
  facet normal -0 0 1
    outer loop
      vertex 8.25 -14.2894 4
      vertex 8.75 -15.1554 4
      vertex 11.0407 -12.2619 4
    endloop
  endfacet
  facet normal 0 0 1
    outer loop
      vertex 8.25 -14.2894 4
      vertex 5.4078 -16.6435 4
      vertex 8.75 -15.1554 4
    endloop
  endfacet
  facet normal -0 0 1
    outer loop
      vertex 5.09878 -15.6924 4
      vertex 5.4078 -16.6435 4
      vertex 8.25 -14.2894 4
    endloop
  endfacet
  facet normal 0 0 1
    outer loop
      vertex 5.09878 -15.6924 4
      vertex 1.82925 -17.4041 4
      vertex 5.4078 -16.6435 4
    endloop
  endfacet
  facet normal -0 0 1
    outer loop
      vertex 1.72472 -16.4096 4
      vertex 1.82925 -17.4041 4
      vertex 5.09878 -15.6924 4
    endloop
  endfacet
  facet normal -0 0 1
    outer loop
      vertex -1.72472 -16.4096 4
      vertex 1.82925 -17.4041 4
      vertex 1.72472 -16.4096 4
    endloop
  endfacet
  facet normal 0 0 1
    outer loop
      vertex -1.72472 -16.4096 4
      vertex -1.82925 -17.4041 4
      vertex 1.82925 -17.4041 4
    endloop
  endfacet
  facet normal 0 0 1
    outer loop
      vertex -5.09878 -15.6924 4
      vertex -1.82925 -17.4041 4
      vertex -1.72472 -16.4096 4
    endloop
  endfacet
  facet normal 0 0 1
    outer loop
      vertex -5.09878 -15.6924 4
      vertex -5.4078 -16.6435 4
      vertex -1.82925 -17.4041 4
    endloop
  endfacet
  facet normal 0 0 1
    outer loop
      vertex -8.25 -14.2894 4
      vertex -5.4078 -16.6435 4
      vertex -5.09878 -15.6924 4
    endloop
  endfacet
  facet normal 0 0 1
    outer loop
      vertex -8.25 -14.2894 4
      vertex -8.75 -15.1554 4
      vertex -5.4078 -16.6435 4
    endloop
  endfacet
  facet normal 0 0 1
    outer loop
      vertex -11.0407 -12.2619 4
      vertex -8.75 -15.1554 4
      vertex -8.25 -14.2894 4
    endloop
  endfacet
  facet normal 0 0 1
    outer loop
      vertex -11.0407 -12.2619 4
      vertex -11.7098 -13.005 4
      vertex -8.75 -15.1554 4
    endloop
  endfacet
  facet normal 0 0 1
    outer loop
      vertex -13.3488 -9.69846 4
      vertex -11.7098 -13.005 4
      vertex -11.0407 -12.2619 4
    endloop
  endfacet
  facet normal 0 0 1
    outer loop
      vertex -13.3488 -9.69846 4
      vertex -14.1578 -10.2862 4
      vertex -11.7098 -13.005 4
    endloop
  endfacet
  facet normal 0 0 1
    outer loop
      vertex -15.0735 -6.71115 4
      vertex -14.1578 -10.2862 4
      vertex -13.3488 -9.69846 4
    endloop
  endfacet
  facet normal 0 0 1
    outer loop
      vertex -15.0735 -6.71115 4
      vertex -15.987 -7.11789 4
      vertex -14.1578 -10.2862 4
    endloop
  endfacet
  facet normal 0 0 1
    outer loop
      vertex -16.1394 -3.43054 4
      vertex -15.987 -7.11789 4
      vertex -15.0735 -6.71115 4
    endloop
  endfacet
  facet normal 0 0 1
    outer loop
      vertex -17.1176 -3.63845 4
      vertex -16.1394 -3.43054 4
      vertex -16.5 0 4
    endloop
  endfacet
  facet normal 0 0 1
    outer loop
      vertex -17.5 0 4
      vertex -16.5 0 4
      vertex -17.1176 3.63845 4
    endloop
  endfacet
  facet normal 0 0 1
    outer loop
      vertex -16.1394 -3.43054 4
      vertex -17.1176 -3.63845 4
      vertex -15.987 -7.11789 4
    endloop
  endfacet
  facet normal 0 0 1
    outer loop
      vertex -16.5 0 4
      vertex -17.5 0 4
      vertex -17.1176 -3.63845 4
    endloop
  endfacet
  facet normal -0.2079 0.97815 0
    outer loop
      vertex -1.82925 17.4041 0
      vertex -5.4078 16.6435 4
      vertex -1.82925 17.4041 4
    endloop
  endfacet
  facet normal -0.2079 0.97815 0
    outer loop
      vertex -5.4078 16.6435 4
      vertex -1.82925 17.4041 0
      vertex -5.4078 16.6435 0
    endloop
  endfacet
  facet normal 0.994522 -0.104524 0
    outer loop
      vertex 17.1176 -3.63845 4
      vertex 17.2898 -2 0
      vertex 17.2898 -2 4
    endloop
  endfacet
  facet normal 0.994522 -0.104524 0
    outer loop
      vertex 17.2898 -2 0
      vertex 17.1176 -3.63845 4
      vertex 17.1176 -3.63845 0
    endloop
  endfacet
  facet normal 0 0 -1
    outer loop
      vertex 8.5 -2 0
      vertex 17.1176 -3.63845 0
      vertex 15.987 -7.11789 0
    endloop
  endfacet
  facet normal 0 0 -1
    outer loop
      vertex 8.5 -2 0
      vertex 15.987 -7.11789 0
      vertex 14.1578 -10.2862 0
    endloop
  endfacet
  facet normal 0 0 -1
    outer loop
      vertex 8.5 -2 0
      vertex 14.1578 -10.2862 0
      vertex 11.7098 -13.005 0
    endloop
  endfacet
  facet normal 0 0 -1
    outer loop
      vertex 8.5 -2 0
      vertex 11.7098 -13.005 0
      vertex 8.75 -15.1554 0
    endloop
  endfacet
  facet normal 0 0 -1
    outer loop
      vertex 17.1176 -3.63845 0
      vertex 8.5 -2 0
      vertex 17.2898 -2 0
    endloop
  endfacet
  facet normal 0 0 -1
    outer loop
      vertex 1.82925 -17.4041 0
      vertex 8.5 -2 0
      vertex 5.4078 -16.6435 0
    endloop
  endfacet
  facet normal 0 0 -1
    outer loop
      vertex 5.4078 -16.6435 0
      vertex 8.5 -2 0
      vertex 8.75 -15.1554 0
    endloop
  endfacet
  facet normal 0 0 -1
    outer loop
      vertex 8.5 2 0
      vertex 17.1176 3.63845 0
      vertex 17.2898 2 0
    endloop
  endfacet
  facet normal -0 0 -1
    outer loop
      vertex 17.1176 3.63845 0
      vertex 8.5 2 0
      vertex 15.987 7.11789 0
    endloop
  endfacet
  facet normal -0 0 -1
    outer loop
      vertex 15.987 7.11789 0
      vertex 8.5 2 0
      vertex 14.1578 10.2862 0
    endloop
  endfacet
  facet normal -0 0 -1
    outer loop
      vertex 14.1578 10.2862 0
      vertex 8.5 2 0
      vertex 11.7098 13.005 0
    endloop
  endfacet
  facet normal -0 0 -1
    outer loop
      vertex 11.7098 13.005 0
      vertex 8.5 2 0
      vertex 8.75 15.1554 0
    endloop
  endfacet
  facet normal 0 0 -1
    outer loop
      vertex -1.82925 -17.4041 0
      vertex 8.5 -2 0
      vertex 1.82925 -17.4041 0
    endloop
  endfacet
  facet normal 0 0 -1
    outer loop
      vertex 8.5 2 0
      vertex 5.4078 16.6435 0
      vertex 8.75 15.1554 0
    endloop
  endfacet
  facet normal 0 0 -1
    outer loop
      vertex -5.4078 -16.6435 0
      vertex 8.5 -2 0
      vertex -1.82925 -17.4041 0
    endloop
  endfacet
  facet normal 0 0 -1
    outer loop
      vertex 8.5 2 0
      vertex 1.82925 17.4041 0
      vertex 5.4078 16.6435 0
    endloop
  endfacet
  facet normal 0 0 -1
    outer loop
      vertex -8.75 -15.1554 0
      vertex 8.5 -2 0
      vertex -5.4078 -16.6435 0
    endloop
  endfacet
  facet normal 0 0 -1
    outer loop
      vertex 8.5 2 0
      vertex -1.82925 17.4041 0
      vertex 1.82925 17.4041 0
    endloop
  endfacet
  facet normal 0 0 -1
    outer loop
      vertex -11.7098 -13.005 0
      vertex 8.5 -2 0
      vertex -8.75 -15.1554 0
    endloop
  endfacet
  facet normal 0 0 -1
    outer loop
      vertex 8.5 2 0
      vertex -5.4078 16.6435 0
      vertex -1.82925 17.4041 0
    endloop
  endfacet
  facet normal 0 0 -1
    outer loop
      vertex -14.1578 -10.2862 0
      vertex 8.5 -2 0
      vertex -11.7098 -13.005 0
    endloop
  endfacet
  facet normal 0 0 -1
    outer loop
      vertex 8.5 2 0
      vertex -8.75 15.1554 0
      vertex -5.4078 16.6435 0
    endloop
  endfacet
  facet normal 0 0 -1
    outer loop
      vertex -15.987 -7.11789 0
      vertex 8.5 -2 0
      vertex -14.1578 -10.2862 0
    endloop
  endfacet
  facet normal 0 0 -1
    outer loop
      vertex 8.5 2 0
      vertex -11.7098 13.005 0
      vertex -8.75 15.1554 0
    endloop
  endfacet
  facet normal 0 0 -1
    outer loop
      vertex -17.1176 -3.63845 0
      vertex 8.5 -2 0
      vertex -15.987 -7.11789 0
    endloop
  endfacet
  facet normal 0 0 -1
    outer loop
      vertex 8.5 2 0
      vertex -14.1578 10.2862 0
      vertex -11.7098 13.005 0
    endloop
  endfacet
  facet normal 0 0 -1
    outer loop
      vertex -17.5 0 0
      vertex 8.5 -2 0
      vertex -17.1176 -3.63845 0
    endloop
  endfacet
  facet normal 0 0 -1
    outer loop
      vertex 8.5 2 0
      vertex -15.987 7.11789 0
      vertex -14.1578 10.2862 0
    endloop
  endfacet
  facet normal 0 0 -1
    outer loop
      vertex 8.5 -2 0
      vertex -17.5 0 0
      vertex 8.5 2 0
    endloop
  endfacet
  facet normal 0 0 -1
    outer loop
      vertex 8.5 2 0
      vertex -17.1176 3.63845 0
      vertex -15.987 7.11789 0
    endloop
  endfacet
  facet normal -0 0 -1
    outer loop
      vertex 8.5 2 0
      vertex -17.5 0 0
      vertex -17.1176 3.63845 0
    endloop
  endfacet
  facet normal 0.2079 -0.97815 0
    outer loop
      vertex 1.82925 -17.4041 0
      vertex 5.4078 -16.6435 4
      vertex 1.82925 -17.4041 4
    endloop
  endfacet
  facet normal 0.2079 -0.97815 0
    outer loop
      vertex 5.4078 -16.6435 4
      vertex 1.82925 -17.4041 0
      vertex 5.4078 -16.6435 0
    endloop
  endfacet
  facet normal 0.866028 -0.499995 0
    outer loop
      vertex 14.1578 -10.2862 4
      vertex 15.987 -7.11789 0
      vertex 15.987 -7.11789 4
    endloop
  endfacet
  facet normal 0.866028 -0.499995 0
    outer loop
      vertex 15.987 -7.11789 0
      vertex 14.1578 -10.2862 4
      vertex 14.1578 -10.2862 0
    endloop
  endfacet
  facet normal -0.866028 -0.499995 0
    outer loop
      vertex -14.1578 -10.2862 0
      vertex -15.987 -7.11789 4
      vertex -15.987 -7.11789 0
    endloop
  endfacet
  facet normal -0.866028 -0.499995 0
    outer loop
      vertex -15.987 -7.11789 4
      vertex -14.1578 -10.2862 0
      vertex -14.1578 -10.2862 4
    endloop
  endfacet
  facet normal -0.743147 -0.669128 0
    outer loop
      vertex -11.7098 -13.005 0
      vertex -14.1578 -10.2862 4
      vertex -14.1578 -10.2862 0
    endloop
  endfacet
  facet normal -0.743147 -0.669128 0
    outer loop
      vertex -14.1578 -10.2862 4
      vertex -11.7098 -13.005 0
      vertex -11.7098 -13.005 4
    endloop
  endfacet
  facet normal -0.994522 -0.104524 0
    outer loop
      vertex -17.1176 -3.63845 0
      vertex -17.5 0 4
      vertex -17.5 0 0
    endloop
  endfacet
  facet normal -0.994522 -0.104524 0
    outer loop
      vertex -17.5 0 4
      vertex -17.1176 -3.63845 0
      vertex -17.1176 -3.63845 4
    endloop
  endfacet
  facet normal 0.587782 -0.80902 0
    outer loop
      vertex 8.75 -15.1554 0
      vertex 11.7098 -13.005 4
      vertex 8.75 -15.1554 4
    endloop
  endfacet
  facet normal 0.587782 -0.80902 0
    outer loop
      vertex 11.7098 -13.005 4
      vertex 8.75 -15.1554 0
      vertex 11.7098 -13.005 0
    endloop
  endfacet
  facet normal 0.40675 -0.91354 0
    outer loop
      vertex 5.4078 -16.6435 0
      vertex 8.75 -15.1554 4
      vertex 5.4078 -16.6435 4
    endloop
  endfacet
  facet normal 0.40675 -0.91354 0
    outer loop
      vertex 8.75 -15.1554 4
      vertex 5.4078 -16.6435 0
      vertex 8.75 -15.1554 0
    endloop
  endfacet
  facet normal -0.951052 -0.309032 0
    outer loop
      vertex -15.987 -7.11789 0
      vertex -17.1176 -3.63845 4
      vertex -17.1176 -3.63845 0
    endloop
  endfacet
  facet normal -0.951052 -0.309032 0
    outer loop
      vertex -17.1176 -3.63845 4
      vertex -15.987 -7.11789 0
      vertex -15.987 -7.11789 4
    endloop
  endfacet
  facet normal 0.743147 -0.669128 0
    outer loop
      vertex 11.7098 -13.005 4
      vertex 14.1578 -10.2862 0
      vertex 14.1578 -10.2862 4
    endloop
  endfacet
  facet normal 0.743147 -0.669128 0
    outer loop
      vertex 14.1578 -10.2862 0
      vertex 11.7098 -13.005 4
      vertex 11.7098 -13.005 0
    endloop
  endfacet
  facet normal -0.40675 -0.91354 0
    outer loop
      vertex -8.75 -15.1554 0
      vertex -5.4078 -16.6435 4
      vertex -8.75 -15.1554 4
    endloop
  endfacet
  facet normal -0.40675 -0.91354 -0
    outer loop
      vertex -5.4078 -16.6435 4
      vertex -8.75 -15.1554 0
      vertex -5.4078 -16.6435 0
    endloop
  endfacet
  facet normal -0.587782 -0.80902 0
    outer loop
      vertex -11.7098 -13.005 0
      vertex -8.75 -15.1554 4
      vertex -11.7098 -13.005 4
    endloop
  endfacet
  facet normal -0.587782 -0.80902 -0
    outer loop
      vertex -8.75 -15.1554 4
      vertex -11.7098 -13.005 0
      vertex -8.75 -15.1554 0
    endloop
  endfacet
  facet normal -0.2079 -0.97815 0
    outer loop
      vertex -5.4078 -16.6435 0
      vertex -1.82925 -17.4041 4
      vertex -5.4078 -16.6435 4
    endloop
  endfacet
  facet normal -0.2079 -0.97815 -0
    outer loop
      vertex -1.82925 -17.4041 4
      vertex -5.4078 -16.6435 0
      vertex -1.82925 -17.4041 0
    endloop
  endfacet
endsolid OpenSCAD_Model
